Coordinates
version=1
nRows=22
nColumns=24
inDegrees=yes

Units are S.I. units (second, meters, Newtons, ...)
Angles are in degrees.

endheader
time	pelvis_tilt	pelvis_list	pelvis_rotation	pelvis_tx	pelvis_ty	pelvis_tz	hip_flexion_r	hip_adduction_r	hip_rotation_r	knee_angle_r	ankle_angle_r	subtalar_angle_r	mtp_angle_r	hip_flexion_l	hip_adduction_l	hip_rotation_l	knee_angle_l	ankle_angle_l	subtalar_angle_l	mtp_angle_l	lumbar_extension	lumbar_bending	lumbar_rotation
      4.77000000	     -9.77574569	      5.20227452	     -4.61610482	     -1.02411633	     -0.01957431	     -0.65076777	     14.65130131	     -7.02065224	     -2.52071700	    -57.11722677	    -13.71908111	    -12.28469309	      4.84823004	     26.65023881	      6.22009882	    -14.76345679	    -23.08817484	      2.03290436	    -11.69617683	      0.92477176	      7.71934777	     -4.40211752	      3.50159242
      4.77500000	     -9.86723084	      5.15122615	     -4.49229352	     -1.01936010	     -0.01908581	     -0.65145758	     15.62040630	     -7.01174528	     -2.58698075	    -58.27502053	    -13.17471995	    -12.81770595	      3.17891846	     26.34123690	      6.30577112	    -14.63713219	    -22.94242009	      2.29676533	    -11.56229855	      0.95879540	      7.71697880	     -4.35791235	      3.19840842
      4.78000000	     -9.85473190	      5.08395081	     -4.43414693	     -1.01453193	     -0.01837751	     -0.65208815	     16.43294503	     -6.96678963	     -2.58139993	    -59.21402860	    -12.95660054	    -13.66912355	      2.85313609	     25.86498507	      6.38169046	    -14.51070563	    -22.69352097	      2.46163689	    -11.60651971	      0.93146805	      7.62455577	     -4.28487914	      2.94032731
      4.78500000	    -10.01977694	      4.98316518	     -4.30325673	     -1.00978912	     -0.01792331	     -0.65280826	     17.45532328	     -6.89591924	     -2.65764997	    -60.18349432	    -12.51009337	    -14.21068962	      1.68268809	     25.61907732	      6.42841374	    -14.28266418	    -22.52946780	      2.76240276	    -11.51388614	      0.75574067	      7.70883752	     -4.17399441	      2.65276123
      4.79000000	     -9.99170095	      4.91937515	     -4.23186229	     -1.00495589	     -0.01719545	     -0.65348642	     18.23320286	     -6.87617547	     -2.69050196	    -60.97178073	    -12.28731096	    -14.91076121	      1.54012374	     25.10171182	      6.52329307	    -14.11716834	    -22.23711575	      2.93948319	    -11.53292674	      0.73217990	      7.60774892	     -4.09994861	      2.42668761
      4.79500000	    -10.04773274	      4.81627332	     -4.12932958	     -1.00019652	     -0.01655878	     -0.65417823	     19.09506472	     -6.80876246	     -2.76075006	    -61.69985868	    -12.04133864	    -15.55918060	      1.32637237	     24.69411457	      6.57561560	    -13.90061038	    -21.98163430	      3.12099086	    -11.54067192	      0.67614079	      7.58595004	     -3.98171807	      2.16151501
      4.80000000	    -10.22343715	      4.65947853	     -4.00707488	     -0.99553686	     -0.01605352	     -0.65485885	     20.07977176	     -6.65287296	     -2.82241006	    -62.38237245	    -11.64462608	    -16.03426195	      0.71254347	     24.44235155	      6.56517789	    -13.62358325	    -21.78007154	      3.34443311	    -11.55556466	      0.39925523	      7.67842719	     -3.80273511	      1.89167330
      4.80500000	    -10.18579902	      4.59599903	     -3.92523368	     -0.99075318	     -0.01530262	     -0.65550038	     20.80794934	     -6.62348064	     -2.84140049	    -62.94273361	    -11.26507698	    -16.41204057	      0.70726192	     23.89710129	      6.65047690	    -13.47948116	    -21.45300617	      3.50737206	    -11.47901964	      0.39364753	      7.56950553	     -3.73109359	      1.63716188
      4.81000000	    -10.19233349	      4.51197606	     -3.82185418	     -0.98595353	     -0.01459541	     -0.65615507	     21.55982944	     -6.57287788	     -2.90289015	    -63.41600706	    -10.86936537	    -16.79853212	      0.68265676	     23.39382971	      6.71915176	    -13.30316630	    -21.11887978	      3.66922888	    -11.42210950	      0.36943129	      7.51559520	     -3.63664843	      1.39159029
      4.81500000	    -10.24695895	      4.41287176	     -3.66849577	     -0.98117308	     -0.01396861	     -0.65691855	     22.34515321	     -6.53150817	     -3.03440054	    -63.82215831	    -10.43573519	    -17.13189183	      0.60951116	     22.95013186	      6.78930585	    -13.11345899	    -20.79220359	      3.84591855	    -11.39835767	      0.29298714	      7.50884237	     -3.51926304	      1.10075307
      4.82000000	    -10.24561194	      4.30906514	     -3.58476185	     -0.97639132	     -0.01321764	     -0.65751145	     23.04721568	     -6.42783331	     -3.05364389	    -64.11476003	     -9.94338153	    -17.37717373	      0.64345735	     22.41776655	      6.82238376	    -12.95669965	    -20.42013898	      3.97997067	    -11.32390344	      0.27022458	      7.45475539	     -3.39988324	      0.88166599
      4.82500000	    -10.23654752	      4.20329918	     -3.50572835	     -0.97159471	     -0.01248763	     -0.65809210	     23.72443371	     -6.32338445	     -3.09316806	    -64.32880659	     -9.43840043	    -17.61215462	      0.70752026	     21.87328300	      6.84758381	    -12.86578623	    -20.03568305	      4.13321783	    -11.27963560	      0.27020668	      7.39702958	     -3.28014072	      0.66348766
      4.83000000	    -10.22271801	      4.12534256	     -3.30551329	     -0.96676714	     -0.01177263	     -0.65888068	     24.35020217	     -6.32448181	     -3.24446228	    -64.46982183	     -8.78828267	    -17.61522359	      0.78634439	     21.31702555	      6.95439056	    -12.62965540	    -19.64501448	      4.26899306	    -11.15872549	      0.20272660	      7.33535740	     -3.19322293	      0.32610129
      4.83500000	    -10.17261714	      4.03879430	     -3.17959530	     -0.96193753	     -0.01100276	     -0.65955139	     24.92875659	     -6.27124020	     -3.32358766	    -64.51683830	     -8.19024608	    -17.66897144	      0.89314612	     20.70183211	      7.02461020	    -12.45474131	    -19.21750332	      4.40465578	    -11.06982199	      0.14322924	      7.24646911	     -3.09299004	      0.08644163
      4.84000000	    -10.11608336	      3.95583717	     -3.06435200	     -0.95710411	     -0.01024602	     -0.66019362	     25.48644033	     -6.21731864	     -3.40231241	    -64.48672820	     -7.61515848	    -17.72069033	      1.02904842	     20.07189163	      7.09029365	    -12.29400123	    -18.77559805	      4.55558656	    -10.96500082	      0.12364264	      7.15316891	     -2.99317952	     -0.12932427
      4.84500000	    -10.02516997	      3.86275669	     -2.93836777	     -0.95224745	     -0.00944148	     -0.66083409	     25.96900072	     -6.15559543	     -3.48799200	    -64.35762748	     -7.01796295	    -17.70755820	      1.21251313	     19.39732854	      7.14635661	    -12.13444912	    -18.32336936	      4.67902495	    -10.85181257	      0.10198990	      7.03037727	     -2.88804970	     -0.37197305
      4.85000000	     -9.89914106	      3.76045360	     -2.81349420	     -0.94737737	     -0.00858845	     -0.66146606	     26.38149858	     -6.08060960	     -3.57221866	    -64.13067617	     -6.45184167	    -17.69520412	      1.44210538	     18.67697828	      7.19100369	    -11.98767036	    -17.85644215	      4.77092442	    -10.75119691	      0.06897929	      6.87419804	     -2.77247148	     -0.61849090
      4.85500000	     -9.80217286	      3.67274418	     -2.69926596	     -0.94252883	     -0.00783441	     -0.66209421	     26.82679808	     -6.02089488	     -3.66075694	    -63.85249564	     -5.94610511	    -17.72240399	      1.64333449	     17.98830975	      7.24453826	    -11.81659166	    -17.38956026	      4.90714841	    -10.63797048	      0.07094757	      6.74988471	     -2.66484664	     -0.81935754
      4.86000000	     -9.66954594	      3.56365619	     -2.57396186	     -0.93765972	     -0.00702683	     -0.66270510	     27.19056589	     -5.94153732	     -3.76671015	    -63.47129568	     -5.45605628	    -17.73164046	      1.87139617	     17.25774078	      7.27284750	    -11.65858726	    -16.91933245	      5.00841051	    -10.52459390	      0.06584946	      6.59260351	     -2.54584499	     -1.05824299
      4.86500000	     -9.55144992	      3.46222199	     -2.45140888	     -0.93280603	     -0.00627976	     -0.66331400	     27.55815438	     -5.86673927	     -3.87120936	    -63.02532856	     -5.02967715	    -17.79442768	      2.06748685	     16.54565723	      7.30378844	    -11.49747320	    -16.45122768	      5.11873307	    -10.40697516	      0.07220682	      6.45052643	     -2.42525836	     -1.27348539
      4.87000000	     -9.43671152	      3.35472260	     -2.32234965	     -0.92796123	     -0.00556528	     -0.66392037	     27.90444993	     -5.78801592	     -3.98863590	    -62.50250174	     -4.63994316	    -17.87596751	      2.23246614	     15.84149866	      7.32340193	    -11.34046755	    -15.99034886	      5.22806152	    -10.27861960	      0.08682303	      6.31291569	     -2.29838493	     -1.49760826
      4.87500000	     -9.32057915	      3.24308600	     -2.18751789	     -0.92312894	     -0.00487873	     -0.66450882	     28.22461498	     -5.70692754	     -4.12128722	    -61.90280598	     -4.29105427	    -17.99239641	      2.35568677	     15.14086668	      7.33215122	    -11.19479943	    -15.53616392	      5.33302073	    -10.14029262	      0.10933056	      6.17424498	     -2.17148914	     -1.72927042
